<svg width="40" height="40" viewBox="0 0 40 40" fill="none" xmlns="http://www.w3.org/2000/svg">
  <g>
    <!-- Front face -->
    <path d="M8 16L20 8L32 16L20 24L8 16Z" fill="#FF6B6B"/>
    <!-- Top face -->
    <path d="M20 8L32 16L20 24L8 16L20 8Z" fill="#4ECDC4"/>
    <!-- Right face -->
    <path d="M20 24L32 16L32 32L20 40L20 24Z" fill="#45B7D1"/>
    <!-- Left face -->
    <path d="M8 16L20 24L20 40L8 32L8 16Z" fill="#96CEB4"/>
    <!-- Back faces for depth -->
    <path d="M20 24L32 16L32 32L20 40L20 24Z" fill="#45B7D1" opacity="0.8"/>
    <path d="M8 16L20 24L20 40L8 32L8 16Z" fill="#96CEB4" opacity="0.8"/>
  </g>
</svg>