<?xml version="1.0" encoding="UTF-8"?>
<svg width="120" height="120" viewBox="0 0 120 120" fill="none" xmlns="http://www.w3.org/2000/svg">
<rect width="120" height="120" rx="26.6667" fill="#F5F5F5"/>
<path d="M60 43.6364C63.8182 43.6364 67.0909 45.0545 69.6364 47.4545L75.8182 41.2727C71.6364 37.4545 66.1818 35.4545 60 35.4545C49.0909 35.4545 40 44.5455 40 55.4545C40 66.3636 49.0909 75.4545 60 75.4545C70.3636 75.4545 78.5455 67.8182 79.8182 57.2727H60V49.0909H88.1818C88.7273 52.1818 89 55.4545 89 58.9091C89 74.9091 76.5455 83.6364 60 83.6364C44.3636 83.6364 31.8182 71.0909 31.8182 55.4545C31.8182 39.8182 44.3636 27.2727 60 27.2727C68.1818 27.2727 75.2727 30.5455 80.3636 35.8182L74.1818 42C71.0909 39.0909 66.9091 37.6364 60 37.6364C49.8182 37.6364 41.8182 45.6364 41.8182 55.4545C41.8182 65.2727 49.8182 73.2727 60 73.2727C68.7273 73.2727 75.8182 67.4545 77.2727 59.4545H60V43.6364Z" fill="#4285F4"/>
<path d="M77.2727 59.4545C75.8182 67.4545 68.7273 73.2727 60 73.2727C49.8182 73.2727 41.8182 65.2727 41.8182 55.4545C41.8182 45.6364 49.8182 37.6364 60 37.6364C66.9091 37.6364 71.0909 39.0909 74.1818 42L80.3636 35.8182C75.2727 30.5455 68.1818 27.2727 60 27.2727C44.3636 27.2727 31.8182 39.8182 31.8182 55.4545C31.8182 71.0909 44.3636 83.6364 60 83.6364C76.5455 83.6364 89 74.9091 89 58.9091C89 55.4545 88.7273 52.1818 88.1818 49.0909H60V57.2727H79.8182C78.5455 67.8182 70.3636 75.4545 60 75.4545C49.0909 75.4545 40 66.3636 40 55.4545C40 44.5455 49.0909 35.4545 60 35.4545C66.1818 35.4545 71.6364 37.4545 75.8182 41.2727L69.6364 47.4545C67.0909 45.0545 63.8182 43.6364 60 43.6364Z" fill="#34A853"/>
<path d="M60 43.6364V57.2727H79.8182C78.5455 67.8182 70.3636 75.4545 60 75.4545V83.6364C76.5455 83.6364 89 74.9091 89 58.9091C89 55.4545 88.7273 52.1818 88.1818 49.0909H60V43.6364Z" fill="#FBBC04"/>
<path d="M41.8182 55.4545C41.8182 45.6364 49.8182 37.6364 60 37.6364V27.2727C44.3636 27.2727 31.8182 39.8182 31.8182 55.4545C31.8182 71.0909 44.3636 83.6364 60 83.6364V73.2727C49.8182 73.2727 41.8182 65.2727 41.8182 55.4545Z" fill="#EA4335"/>
</svg>